<?xml version="1.0" standalone="no"?>
<!DOCTYPE svg PUBLIC "-//W3C//DTD SVG 20010904//EN"
 "http://www.w3.org/TR/2001/REC-SVG-20010904/DTD/svg10.dtd">
<svg version="1.0" xmlns="http://www.w3.org/2000/svg"
 width="100.000000pt" height="100.000000pt" viewBox="0 0 100.000000 100.000000"
 preserveAspectRatio="xMidYMid meet">
<metadata>
Created by potrace 1.11, written by Peter Selinger 2001-2013
</metadata>
<g transform="translate(0.000000,100.000000) scale(0.100000,-0.100000)"
fill="#000000" stroke="none">
<path d="M396 895 c-18 -14 -19 -20 -8 -78 21 -112 -7 -207 -80 -272 -31 -29
-41 -33 -65 -26 -15 4 -46 7 -68 7 -37 -1 -42 -4 -63 -46 -20 -38 -23 -56 -19
-112 5 -80 48 -175 88 -197 24 -13 31 -13 74 6 42 18 52 19 89 8 22 -7 73 -16
111 -19 103 -10 213 -33 315 -64 14 -5 48 -9 77 -11 42 -2 53 1 60 16 22 44
-7 74 -86 89 -13 3 -33 10 -44 15 -19 11 -19 11 4 23 34 17 47 60 26 84 -21
23 -21 32 -2 32 35 0 43 83 10 110 -11 9 -9 15 11 35 22 23 23 27 11 57 -10
24 -29 40 -82 67 -71 35 -118 42 -192 29 l-32 -6 6 78 c5 68 3 84 -17 125 -30
62 -81 82 -124 50z"/>
</g>
</svg>
